Coordinates
version=1
nRows=27
nColumns=12
inDegrees=yes

Units are S.I. units (second, meters, Newtons, ...)
Angles are in degrees

endheader
time	SC_y	SC_z	SC_x	AC_y	AC_z	AC_x	GH_y	GH_z	GH_yy	EL_x	PS_y
       0.0              -58.93          18.45          21.29          30.76          1.058         -14.04         -98.87        -0.4316         -66.29          100.6           66.6
   0.04644              -58.93          18.45          21.29          30.76          1.056         -14.04         -98.84        -0.4215         -66.26          100.6           66.6
   0.09287              -58.92          18.45          21.29          30.77          1.055         -14.04         -98.81        -0.4108         -66.23          100.6          66.61
    0.1393              -58.92          18.45          21.29          30.77          1.053         -14.04         -98.78        -0.3994         -66.21          100.6          66.62
    0.1857              -58.92          18.45          21.28          30.78          1.051         -14.04         -98.74        -0.3872         -66.17          100.6          66.63
    0.2322              -58.92          18.45          21.28          30.79          1.049         -14.04          -98.7        -0.3743         -66.14          100.6          66.64
    0.2786              -58.92          18.46          21.28           30.8          1.047         -14.04         -98.66        -0.3604         -66.11          100.6          66.65
    0.3251              -58.91          18.46          21.27           30.8          1.045         -14.04         -98.62        -0.3457         -66.07          100.5          66.66
    0.3715              -58.91          18.46          21.27          30.81          1.043         -14.04         -98.58        -0.3298         -66.03          100.5          66.67
    0.4179              -58.91          18.46          21.26          30.82           1.04         -14.05         -98.53        -0.3128         -65.99          100.5          66.68
    0.4644               -58.9          18.47          21.26          30.83          1.037         -14.05         -98.47        -0.2946         -65.94          100.5          66.69
    0.5108               -58.9          18.47          21.25          30.84          1.034         -14.05         -98.42         -0.275         -65.89          100.5          66.71
    0.5572               -58.9          18.47          21.25          30.85          1.031         -14.05         -98.36        -0.2538         -65.84          100.4          66.72
    0.6037              -58.89          18.48          21.24          30.87          1.028         -14.05         -98.29        -0.2309         -65.78          100.4          66.74
    0.6501              -58.89          18.48          21.24          30.88          1.024         -14.06         -98.22        -0.2062         -65.72          100.4          66.75
    0.6965              -58.88          18.48          21.23          30.89           1.02         -14.06         -98.14        -0.1794         -65.65          100.3          66.77
     0.743              -58.88          18.49          21.22          30.91          1.016         -14.06         -98.06        -0.1502         -65.58          100.3          66.79
    0.7894              -58.87          18.49          21.21          30.93          1.011         -14.06         -97.97        -0.1184          -65.5          100.3          66.82
    0.8359              -58.87           18.5           21.2          30.95          1.006         -14.07         -97.87       -0.08374         -65.41          100.2          66.84
    0.8823              -58.86           18.5          21.19          30.97            1.0         -14.07         -97.76       -0.04576         -65.31          100.2          66.87
    0.9287              -58.85          18.51          21.18          30.99         0.9943         -14.07         -97.64       -0.00406         -65.21          100.1           66.9
    0.9752              -58.84          18.52          21.17          31.02         0.9875         -14.08         -97.51        0.04185         -65.09          100.1          66.93
     1.022              -58.84          18.52          21.16          31.04           0.98         -14.08         -97.36        0.09254         -64.97          100.0          66.96
     1.068              -58.83          18.53          21.14          31.07         0.9717         -14.09          -97.2         0.1487         -64.82          99.94           67.0
     1.114              -58.81          18.54          21.13          31.11         0.9624         -14.09         -97.02         0.2112         -64.67          99.86          67.05
     1.161               -58.8          18.55          21.11          31.15         0.9521          -14.1         -96.82         0.2808         -64.49          99.78           67.1
     1.207              -58.79          18.56          21.09          31.19         0.9405          -14.1          -96.6         0.3589         -64.29          99.68          67.15
